<?xml version="1.0" encoding="UTF-8"?><svg id="Layer_2" xmlns="http://www.w3.org/2000/svg" xmlns:xlink="http://www.w3.org/1999/xlink" viewBox="0 0 127.22 198.88"><defs><style>.cls-1{filter:url(#AI_BevelShadow_1);}</style><filter id="AI_BevelShadow_1" x="-20%" y="-20%" width="140%" height="140%"><feGaussianBlur in="SourceAlpha" result="blur" stdDeviation="4"/><feOffset dx="4" dy="4" in="blur" result="offsetBlur"/><feSpecularLighting in="blur" result="specOut" specularConstant="1" specularExponent="10" surfaceScale="5"><fePointLight x="-5000" y="-10000" z="-20000"/></feSpecularLighting><feComposite in="specOut" in2="SourceAlpha" operator="in" result="specOut"/><feComposite in="SourceGraphic" in2="specOut" k1="0" k2="1" k3="1" k4="0" operator="arithmetic" result="litPaint"/><feMerge><feMergeNode in="offsetBlur"/><feMergeNode in="litPaint"/></feMerge></filter></defs><g id="Layer_1-2"><g class="cls-1"><path d="M122.81,133.19c0,17.14-.2,34.29,.09,51.43,.13,7.42-5.04,14.37-14.23,14.26-21.89-.27-43.78-.07-65.67-.09-6.68,0-13.36-.22-20.04-.17-6.51,.04-11.2-6.51-11.48-12.36-.2-4.16-.05-8.33-.05-12.49,0-30.99,0-61.99,0-92.98q0-4.48,4.46-4.48c34.39,0,68.77,0,103.16,0,3.66,0,3.75,.05,3.76,3.72,.01,17.72,0,35.45,0,53.17Zm-90.44,2.1c0,13.08,0,26.16,0,39.23,0,4.32,1.15,5.37,5.38,5.04,2.91-.23,3.66-1.2,3.66-5.05,.01-26.06,0-52.12,0-78.18,0-.68-.01-1.36-.11-2.03-.27-1.86-1.25-2.88-3.25-3.04-4.29-.35-5.67,.8-5.67,5.08-.01,12.98,0,25.96,0,38.94Zm39.13-.03c0-13.16,.02-26.33-.01-39.49,0-3.83-.91-4.63-4.65-4.52-3.35,.1-4.1,.92-4.1,4.85-.02,19.55-.01,39.11-.01,58.66,0,6.97,.05,13.94,0,20.91-.02,2.71,1.27,3.83,3.86,3.94,3.84,.17,4.91-.72,4.92-4.57,.03-13.26,.01-26.52,0-39.78Zm21.71,.19c0,13.26-.02,26.51,0,39.77,0,3.66,.83,4.42,4.45,4.39,3.44-.03,4.19-.83,4.19-4.71,.01-21.38,0-42.77,0-64.15,0-5.22-.03-10.45,0-15.67,.02-2.51-1.11-3.72-3.64-3.83-4.04-.18-5.01,.64-5.01,4.73-.02,13.16,0,26.32,0,39.48Z"/><path d="M59.64,48.98c-18.45-5.9-36.9-11.8-55.34-17.71C-.07,29.87-.74,28.58,.65,24.15c1.36-4.34,2.72-8.69,4.18-13,1.2-3.54,2.88-4.33,6.45-3.2,10.06,3.2,20.11,6.43,30.17,9.64,3.58,1.14,3.44,1.07,4.82-2.53,1.37-3.57,2.73-7.23,4.74-10.43C53.34,.92,57.36-.77,61.55,.33c8.13,2.14,16.13,4.8,24.13,7.4,6.46,2.09,8.61,9.14,7.14,15.22-.54,2.25-1.23,4.5-2.12,6.64-1.06,2.55-.49,3.72,2.26,4.56,10.1,3.07,20.13,6.37,30.18,9.6,3.94,1.26,4.78,2.79,3.57,6.72-1.33,4.35-2.73,8.69-4.16,13.01-1.34,4.04-2.74,4.75-6.74,3.47-18.73-5.98-37.45-11.98-56.18-17.97Zm7.56-23.14l3.03,.97q7.87,2.52,9.77-5.75c.02-.09,.05-.19,.08-.28,.45-1.48-.04-2.33-1.57-2.81-5.25-1.62-10.46-3.4-15.74-4.92-.71-.2-2.23,.55-2.55,1.25-.96,2.09-1.68,4.33-2.13,6.59-.14,.71,.7,2.1,1.42,2.4,2.48,1.04,5.11,1.73,7.68,2.55Z"/></g></g></svg>