<?xml version="1.0" encoding="UTF-8"?><svg id="Layer_2" xmlns="http://www.w3.org/2000/svg" xmlns:xlink="http://www.w3.org/1999/xlink" viewBox="0 0 128.16 179.94"><defs><style>.cls-1{filter:url(#AI_BevelShadow_1);}</style><filter id="AI_BevelShadow_1" x="-20%" y="-20%" width="140%" height="140%"><feGaussianBlur in="SourceAlpha" result="blur" stdDeviation="4"/><feOffset dx="4" dy="4" in="blur" result="offsetBlur"/><feSpecularLighting in="blur" result="specOut" specularConstant="1" specularExponent="10" surfaceScale="5"><fePointLight x="-5000" y="-10000" z="-20000"/></feSpecularLighting><feComposite in="specOut" in2="SourceAlpha" operator="in" result="specOut"/><feComposite in="SourceGraphic" in2="specOut" k1="0" k2="1" k3="1" k4="0" operator="arithmetic" result="litPaint"/><feMerge><feMergeNode in="offsetBlur"/><feMergeNode in="litPaint"/></feMerge></filter></defs><g id="Layer_1-2"><g class="cls-1"><path d="M119.77,114.25c0,17.14-.2,34.29,.09,51.43,.13,7.42-5.04,14.37-14.23,14.26-21.89-.27-43.78-.07-65.67-.09-6.68,0-13.36-.22-20.04-.17-6.51,.04-11.2-6.51-11.48-12.36-.2-4.16-.05-8.33-.05-12.49,0-30.99,0-61.99,0-92.98q0-4.48,4.46-4.48c34.39,0,68.77,0,103.16,0,3.66,0,3.75,.05,3.76,3.72,.01,17.72,0,35.45,0,53.17Zm-90.44,2.1c0,13.08,0,26.16,0,39.23,0,4.32,1.15,5.37,5.38,5.04,2.91-.23,3.66-1.2,3.66-5.05,.01-26.06,0-52.12,0-78.18,0-.68-.01-1.36-.11-2.03-.27-1.86-1.25-2.88-3.25-3.04-4.29-.35-5.67,.8-5.67,5.08-.01,12.98,0,25.96,0,38.94Zm39.13-.03c0-13.16,.02-26.33-.01-39.49,0-3.83-.91-4.63-4.65-4.52-3.35,.1-4.1,.92-4.1,4.85-.02,19.55-.01,39.11-.01,58.66,0,6.97,.05,13.94,0,20.91-.02,2.71,1.27,3.83,3.86,3.94,3.84,.17,4.91-.72,4.92-4.57,.03-13.26,.01-26.52,0-39.78Zm21.71,.19c0,13.26-.02,26.51,0,39.77,0,3.66,.83,4.42,4.45,4.39,3.44-.03,4.19-.83,4.19-4.71,.01-21.38,0-42.77,0-64.15,0-5.22-.03-10.45,0-15.67,.02-2.51-1.11-3.72-3.64-3.83-4.04-.18-5.01,.64-5.01,4.73-.02,13.16,0,26.32,0,39.48Z"/><path d="M63.78,47.25c-19.37,0-38.74,0-58.11,0-4.58,0-5.61-1.03-5.64-5.67C0,37.03-.03,32.48,.05,27.93c.06-3.74,1.43-5.01,5.16-5.01,10.56-.01,21.11,0,31.67,0,3.76,0,3.6-.02,3.82-3.88,.22-3.81,.4-7.71,1.34-11.38,1.09-4.24,4.4-7.07,8.73-7.3C59.17-.1,67.6,0,76.02,.03c6.79,.03,10.99,6.08,11.44,12.32,.17,2.31,.2,4.66,0,6.97-.23,2.75,.67,3.69,3.54,3.65,10.55-.16,21.11-.07,31.67-.06,4.13,0,5.4,1.2,5.45,5.32,.06,4.55,.05,9.1,0,13.65-.05,4.26-1.16,5.36-5.36,5.36-19.66,.01-39.32,0-58.98,0Zm.15-24.34c1.06,0,2.12,0,3.18,0q8.27,0,7.56-8.46c0-.1-.01-.19-.01-.29-.02-1.54-.75-2.21-2.35-2.19-5.5,.06-11-.05-16.49,.11-.73,.02-1.95,1.21-2.04,1.96-.28,2.28-.28,4.64-.02,6.92,.08,.72,1.31,1.79,2.08,1.85,2.68,.23,5.4,.09,8.1,.09Z"/></g></g></svg>